Coordinates
nRows=6
nColumns=38

# SIMM Motion File Header:
name Coordinates
datacolumns 38
datarows 6
otherdata 1
range 2.16279999999999980000 2.16779999999999970000

Units are S.I. units (second, meters, Newtons, ...)
Angles are in degrees.

endheader
time	pelvis_tilt	pelvis_list	pelvis_rotation	pelvis_tx	pelvis_ty	pelvis_tz	hip_flexion_r	hip_adduction_r	hip_rotation_r	knee_angle_r	ankle_angle_r	subtalar_angle_r	mtp_angle_r	hip_flexion_l	hip_adduction_l	hip_rotation_l	knee_angle_l	ankle_angle_l	subtalar_angle_l	mtp_angle_l	lumbar_extension	lumbar_bending	lumbar_rotation	arm_flex_r	arm_add_r	arm_rot_r	elbow_flex_r	pro_sup_r	wrist_flex_r	wrist_dev_r	arm_flex_l	arm_add_l	arm_rot_l	elbow_flex_l	pro_sup_l	wrist_flex_l	wrist_dev_l
      2.16279999999999980000	     -6.47522318314127430000	     -3.32796712739741190000	     -3.50440077611307200000	      1.10896148436199700000	      0.95834781280050030000	     -0.34175502356434301000	      5.87922740615280310000	     11.38425976345891000000	      7.27787336257801960000	    -39.04522267085795300000	     15.46699314123921600000	     -0.00000000000000195716	     -0.00000000000004263351	     50.51884398006100000000	     -4.78482642580665910000	     -0.86130145398367353000	   -120.29336360259195000000	     -2.46919991188148250000	      0.00000000000000336420	     -0.00000000000000196414	     -3.90423660136949690000	      6.04999443082203390000	     14.60268454826446800000	    -21.87701067685258100000	    -11.57634327317443600000	    -11.27139909351724400000	     94.17985653428763700000	     80.37643186844768200000	      0.00000000000000279472	      0.00000000000000036130	    -44.70133372841768700000	    -18.26885190242475000000	     -3.88732938856421840000	     90.38015132173508400000	     93.60211163183770100000	     -0.00000000000000054519	      0.00000000000000116844
      2.16379999999999970000	     -6.49378096932770800000	     -3.21585977420163220000	     -3.43655528811062450000	      1.10909063409542590000	      0.95901162488485858000	     -0.34177231635221172000	      5.52263260358208190000	     11.21801965391255400000	      7.30842300672642240000	    -38.75025007596244800000	     15.04297132853349500000	     -0.00000000000000231613	     -0.00000000000004284169	     50.75854630226916700000	     -4.66616856148522970000	     -0.87672367620572889000	   -119.87060748467981000000	     -2.48724160010718490000	      0.00000000000000346820	     -0.00000000000000195257	     -3.84481394551653550000	      5.90975536210406990000	     14.66277985592866000000	    -21.87300409250551100000	    -11.55890208900991000000	    -11.32120667122929100000	     94.53846412009274000000	     80.48178311967345200000	      0.00000000000000280626	      0.00000000000000027228	    -44.90405650361537900000	    -18.33088978415062400000	     -3.99842043038607780000	     90.61066298107775200000	     93.49143002001298400000	     -0.00000000000000051899	      0.00000000000000120255
      2.16480000000000010000	     -6.50947425141989640000	     -3.10184008682815100000	     -3.36607063098631930000	      1.10922818387186520000	      0.95968779674468241000	     -0.34179416229441129000	      5.16356271277593140000	     11.04906368235870100000	      7.33472139045325110000	    -38.45261684542180100000	     14.60720906511203600000	     -0.00000000000000270144	     -0.00000000000004302523	     50.98925218609100800000	     -4.54359821172376410000	     -0.89352202857575691000	   -119.44022934866004000000	     -2.50758170123738730000	      0.00000000000000358831	     -0.00000000000000191998	     -3.78774154392959030000	      5.76719084716887580000	     14.71831854911551900000	    -21.87031804070330300000	    -11.54100278668149900000	    -11.36759985159267900000	     94.89477139835854300000	     80.57842937356619500000	      0.00000000000000281642	      0.00000000000000019670	    -45.10724001435149000000	    -18.39231421124639700000	     -4.10891183256796210000	     90.84197562312044700000	     93.37801284146986800000	     -0.00000000000000049211	      0.00000000000000123662
      2.16579999999999990000	     -6.52243088053931870000	     -2.98586129856084530000	     -3.29294798909061900000	      1.10937401087750590000	      0.96037585167435668000	     -0.34182062594821788000	      4.80220977312692910000	     10.87739088004060600000	      7.35661255299481010000	    -38.15242971763272100000	     14.15989174340063500000	     -0.00000000000000312136	     -0.00000000000004321975	     51.21110733547012500000	     -4.41704479319003610000	     -0.91168136605275762000	   -119.00231025592069000000	     -2.53020954352406410000	      0.00000000000000371318	     -0.00000000000000188719	     -3.73291555807549580000	      5.62226063249368300000	     14.76928175121928200000	    -21.86893464978383900000	    -11.52262986319462700000	    -11.41057914844522100000	     95.24867148399133000000	     80.66639700399827000000	      0.00000000000000282635	      0.00000000000000011575	    -45.31089607389211700000	    -18.45305211220603800000	     -4.21886307177769830000	     91.07396164350683400000	     93.26221568188010700000	     -0.00000000000000045223	      0.00000000000000127095
      2.16679999999999980000	     -6.53287397286725650000	     -2.86788550605584550000	     -3.21719403670081580000	      1.10952794626138030000	      0.96107516438378826000	     -0.34185176253281985000	      4.43887504214694490000	     10.70301893720616000000	      7.37394514552049250000	    -37.84982118138450600000	     13.70123071713243600000	     -0.00000000000000358321	     -0.00000000000004345657	     51.42436034474235400000	     -4.28645183573034320000	     -0.93117563050941965000	   -118.55692959533611000000	     -2.55514686513181650000	      0.00000000000000383828	     -0.00000000000000184199	     -3.68012772186380710000	      5.47493988633734040000	     14.81565556266710000000	    -21.86885209170106500000	    -11.50376632667833700000	    -11.45015327879346000000	     95.60005727319359900000	     80.74574498109829800000	      0.00000000000000283387	      0.00000000000000004480	    -45.51505073071993500000	    -18.51303204708304100000	     -4.32833751082847050000	     91.30649904871833700000	     93.14438732931383000000	     -0.00000000000000040202	      0.00000000000000130209
      2.16779999999999970000	     -6.54100031361374420000	     -2.74788079183486110000	     -3.13882176088701700000	      1.10968981900528130000	      0.96178514460149422000	     -0.34188761693522479000	      4.07382687363833100000	     10.52597276175886200000	      7.38658500800113500000	    -37.54492031745646600000	     13.23145561333392600000	     -0.00000000000000407160	     -0.00000000000004364794	     51.62923112362849300000	     -4.15177627954471000000	     -0.95198096023501377000	   -118.10416597532412000000	     -2.58241265893762550000	      0.00000000000000395790	     -0.00000000000000179432	     -3.62920134166214540000	      5.32520743350160420000	     14.85743844406404400000	    -21.87006576097184400000	    -11.48439893745065300000	    -11.48633866077179600000	     95.94882522920391900000	     80.81655985430614900000	      0.00000000000000284323	     -0.00000000000000002673	    -45.71972516332936500000	    -18.57218410106505900000	     -4.43739885677492210000	     91.53947546349638700000	     93.02486621304956300000	     -0.00000000000000034577	      0.00000000000000133399
